<svg xmlns="http://www.w3.org/2000/svg" width="11.625" height="11.625" viewBox="0 0 11.625 11.625"><path d="M6-10.312A5.809,5.809,0,0,0,.187-4.5,5.809,5.809,0,0,0,6,1.312,5.829,5.829,0,0,0,9.174.37.563.563,0,0,0,9.3-.459L9.065-.751a.561.561,0,0,0-.735-.12A4.324,4.324,0,0,1,6-.187,4.317,4.317,0,0,1,1.687-4.5,4.317,4.317,0,0,1,6-8.812c2.347,0,4.312,1.35,4.312,3.75A1.83,1.83,0,0,1,8.949-3.1c-.407-.011-.4-.3-.316-.7l.549-2.839a.562.562,0,0,0-.552-.669H7.576a.324.324,0,0,0-.315.281v0a1.8,1.8,0,0,0-1.406-.51,3.343,3.343,0,0,0-3.23,3.55,2.2,2.2,0,0,0,2.25,2.481,2.371,2.371,0,0,0,1.758-.9c.223.8.952.8,1.657.8a3.216,3.216,0,0,0,3.523-3.455C11.812-8.258,9.235-10.312,6-10.312ZM5.492-3.177a.84.84,0,0,1-.845-.956,1.566,1.566,0,0,1,1.374-1.7c.522,0,.834.357.834.956A1.617,1.617,0,0,1,5.492-3.177Z" transform="translate(-0.188 10.312)"/></svg>