<svg xmlns="http://www.w3.org/2000/svg" width="12" height="9" viewBox="0 0 12 9"><path d="M11.773-6.028c-.525.408-1.219.928-3.609,2.665A4.2,4.2,0,0,1,6-2.248,4.193,4.193,0,0,1,3.839-3.363C1.448-5.1.752-5.618.227-6.026A.14.14,0,0,0,0-5.916v4.791A1.125,1.125,0,0,0,1.125,0h9.75A1.125,1.125,0,0,0,12-1.125V-5.918A.141.141,0,0,0,11.773-6.028ZM6-3c.544.009,1.327-.684,1.72-.97,3.11-2.257,3.347-2.454,4.064-3.016A.561.561,0,0,0,12-7.43v-.445A1.125,1.125,0,0,0,10.875-9H1.125A1.125,1.125,0,0,0,0-7.875v.445a.564.564,0,0,0,.216.443c.717.56.954.759,4.064,3.016C4.673-3.684,5.456-2.991,6-3Z" transform="translate(0 9)" /></svg>