<svg xmlns="http://www.w3.org/2000/svg" width="24" height="24" viewBox="0 0 24 24"><g transform="translate(-671 -1798)"><path d="M8.75,6.008A4.371,4.371,0,0,1,11,6.613a4.505,4.505,0,0,1,1.641,1.641,4.469,4.469,0,0,1,0,4.492A4.505,4.505,0,0,1,11,14.387a4.469,4.469,0,0,1-4.492,0,4.505,4.505,0,0,1-1.641-1.641,4.469,4.469,0,0,1,0-4.492A4.505,4.505,0,0,1,6.5,6.613,4.371,4.371,0,0,1,8.75,6.008Zm0,7.422a2.934,2.934,0,0,0,2.93-2.93A2.934,2.934,0,0,0,8.75,7.57,2.934,2.934,0,0,0,5.82,10.5a2.934,2.934,0,0,0,2.93,2.93Zm5.742-7.617a1.217,1.217,0,0,1-.332.742.951.951,0,0,1-.723.312,1.05,1.05,0,0,1-.742-1.8,1.055,1.055,0,0,1,1.8.742Zm2.969,1.055Q17.5,7.961,17.5,10.5t-.059,3.652a7.367,7.367,0,0,1-.332,1.934,4.572,4.572,0,0,1-2.773,2.773,7.367,7.367,0,0,1-1.934.332q-1.113.059-3.652.059T5.1,19.191a6.378,6.378,0,0,1-1.934-.371,4.164,4.164,0,0,1-1.7-1.035,4.553,4.553,0,0,1-1.074-1.7,7.367,7.367,0,0,1-.332-1.934Q0,13.039,0,10.5T.059,6.848A7.367,7.367,0,0,1,.391,4.914,4.572,4.572,0,0,1,3.164,2.141,7.367,7.367,0,0,1,5.1,1.809Q6.211,1.75,8.75,1.75t3.652.059a7.367,7.367,0,0,1,1.934.332,4.572,4.572,0,0,1,2.773,2.773A7.947,7.947,0,0,1,17.461,6.867Zm-1.875,8.789a8.225,8.225,0,0,0,.312-2.109q.039-.859.039-2.422V9.875q0-1.6-.039-2.422a7.838,7.838,0,0,0-.312-2.109,2.819,2.819,0,0,0-1.68-1.68A7.838,7.838,0,0,0,11.8,3.352q-.859-.039-2.422-.039H8.125q-1.562,0-2.422.039a8.225,8.225,0,0,0-2.109.313,2.819,2.819,0,0,0-1.68,1.68A7.838,7.838,0,0,0,1.6,7.453q-.039.859-.039,2.422v1.25q0,1.562.039,2.422a8.225,8.225,0,0,0,.312,2.109,2.961,2.961,0,0,0,1.68,1.68,8.225,8.225,0,0,0,2.109.312q.859.039,2.422.039h1.25q1.6,0,2.422-.039a7.838,7.838,0,0,0,2.109-.312A2.961,2.961,0,0,0,15.586,15.656Z" transform="translate(674 1799.25)"/><rect width="24" height="24" transform="translate(671 1798)" fill="none"/></g></svg>