<svg xmlns="http://www.w3.org/2000/svg" xmlns:xlink="http://www.w3.org/1999/xlink" width="146.451" height="67.156" viewBox="0 0 146.451 67.156"><defs><filter id="a" x="0" y="1.963" width="143.506" height="65.192" filterUnits="userSpaceOnUse"><feOffset dy="3" input="SourceAlpha"/><feGaussianBlur stdDeviation="3" result="b"/><feFlood flood-opacity="0.161"/><feComposite operator="in" in2="b"/><feComposite in="SourceGraphic"/></filter><filter id="c" x="2.945" y="0" width="143.506" height="65.192" filterUnits="userSpaceOnUse"><feOffset dy="3" input="SourceAlpha"/><feGaussianBlur stdDeviation="3" result="d"/><feFlood flood-opacity="0.161"/><feComposite operator="in" in2="d"/><feComposite in="SourceGraphic"/></filter><filter id="e" x="1.964" y="0.982" width="143.506" height="65.192" filterUnits="userSpaceOnUse"><feOffset dy="3" input="SourceAlpha"/><feGaussianBlur stdDeviation="3" result="f"/><feFlood flood-opacity="0.161"/><feComposite operator="in" in2="f"/><feComposite in="SourceGraphic"/></filter></defs><g transform="translate(-21 -23.09)"><g transform="translate(30 29.09)"><g transform="matrix(1, 0, 0, 1, -9, -6)" filter="url(#a)"><path d="M33.322,30.618c.942,0,1.473-.412,1.473-1.208s-.53-1.208-1.473-1.208H22.336c-3.77,0-5.6-1.119-5.6-3.328V15.863c0-2.15,1.8-3.21,5.36-3.21H33.322c.942,0,1.473-.412,1.473-1.208s-.53-1.208-1.473-1.208H22.041q-8.482,0-8.482,5.566v9.16c0,3.77,2.886,5.655,8.63,5.655ZM61.39,24.875c0,2.209-1.8,3.328-5.419,3.328H49.638c-3.623,0-5.419-1.119-5.419-3.328V15.922c0-2.179,1.8-3.269,5.36-3.269h6.45c3.564,0,5.36,1.09,5.36,3.269Zm-5.449,5.743c5.743,0,8.63-1.885,8.63-5.655v-9.1c0-3.74-2.827-5.625-8.482-5.625H49.52c-5.655,0-8.482,1.885-8.482,5.625v9.1c0,3.77,2.886,5.655,8.63,5.655Zm35.785-5.743c0,2.209-1.8,3.328-5.419,3.328H79.974c-3.623,0-5.419-1.119-5.419-3.328V15.922c0-2.179,1.8-3.269,5.36-3.269h6.45c3.564,0,5.36,1.09,5.36,3.269Zm-5.449,5.743c5.743,0,8.63-1.885,8.63-5.655v-9.1c0-3.74-2.827-5.625-8.482-5.625H79.856c-5.655,0-8.482,1.885-8.482,5.625v9.1c0,3.77,2.886,5.655,8.63,5.655Zm36.491,0c.972,0,1.473-.412,1.473-1.208s-.5-1.208-1.473-1.208H110.575c-3.77,0-5.6-1.149-5.6-3.446V11.327c0-.825-.56-1.237-1.62-1.237-1.031,0-1.561.412-1.561,1.237V24.846c0,3.858,2.886,5.773,8.63,5.773ZM15.859,55.963c0,.88.565,1.319,1.728,1.319,1.1,0,1.665-.44,1.665-1.319v-18H27.8q1.6,0,1.6-1.319c0-.817-.534-1.257-1.6-1.257H7.283c-1.037,0-1.571.44-1.571,1.288,0,.88.534,1.288,1.571,1.288h8.577Zm40.809,1.005a2.2,2.2,0,0,0,1.194.314c1.1,0,1.728-.534,1.728-1.351a1.269,1.269,0,0,0-.942-1.225L44.071,48.3h7.508c6.5,0,9.77-1.759,9.77-5.246V40.726c0-3.581-3.267-5.341-9.77-5.341H36.814c-.942,0-1.445.377-1.445,1.1V55.963c0,.88.565,1.319,1.665,1.319,1.131,0,1.728-.44,1.728-1.319V48.612ZM38.761,38.182c0-.157.094-.22.251-.22H51.7c4.178,0,6.252.942,6.252,2.827v2.262c0,1.916-2.073,2.859-6.283,2.859H38.761ZM68.2,55.963c0,.88.565,1.319,1.665,1.319,1.131,0,1.728-.44,1.728-1.319V36.548c0-.88-.565-1.319-1.634-1.319-1.162,0-1.759.44-1.759,1.319Zm31.824,1.162c1.005,0,1.571-.44,1.571-1.288s-.565-1.288-1.571-1.288H88.3c-4.021,0-5.969-1.194-5.969-3.55V41.386c0-2.293,1.916-3.424,5.718-3.424h11.969c1.005,0,1.571-.44,1.571-1.288s-.565-1.288-1.571-1.288H87.99q-9.048,0-9.048,5.938v9.77c0,4.021,3.079,6.032,9.2,6.032Zm28.117-.251a2.257,2.257,0,0,0,1.319.408c1.131,0,1.759-.5,1.759-1.319,0-.565-.22-.911-1.005-1.319l-16.43-8.577L129.9,37.742a1.36,1.36,0,0,0,.848-1.225c0-.817-.6-1.288-1.6-1.288a2.73,2.73,0,0,0-1.319.377L111.74,44.245V36.517c0-.848-.6-1.288-1.7-1.288s-1.7.44-1.7,1.288V55.963c0,.88.6,1.319,1.7,1.319s1.7-.44,1.7-1.319V48.046Z" transform="translate(3.29 -2.13)" fill="#e730cf"/></g><g transform="matrix(1, 0, 0, 1, -9, -6)" filter="url(#c)"><path d="M33.322,30.618c.942,0,1.473-.412,1.473-1.208s-.53-1.208-1.473-1.208H22.336c-3.77,0-5.6-1.119-5.6-3.328V15.863c0-2.15,1.8-3.21,5.36-3.21H33.322c.942,0,1.473-.412,1.473-1.208s-.53-1.208-1.473-1.208H22.041q-8.482,0-8.482,5.566v9.16c0,3.77,2.886,5.655,8.63,5.655ZM61.39,24.875c0,2.209-1.8,3.328-5.419,3.328H49.638c-3.623,0-5.419-1.119-5.419-3.328V15.922c0-2.179,1.8-3.269,5.36-3.269h6.45c3.564,0,5.36,1.09,5.36,3.269Zm-5.449,5.743c5.743,0,8.63-1.885,8.63-5.655v-9.1c0-3.74-2.827-5.625-8.482-5.625H49.52c-5.655,0-8.482,1.885-8.482,5.625v9.1c0,3.77,2.886,5.655,8.63,5.655Zm35.785-5.743c0,2.209-1.8,3.328-5.419,3.328H79.974c-3.623,0-5.419-1.119-5.419-3.328V15.922c0-2.179,1.8-3.269,5.36-3.269h6.45c3.564,0,5.36,1.09,5.36,3.269Zm-5.449,5.743c5.743,0,8.63-1.885,8.63-5.655v-9.1c0-3.74-2.827-5.625-8.482-5.625H79.856c-5.655,0-8.482,1.885-8.482,5.625v9.1c0,3.77,2.886,5.655,8.63,5.655Zm36.491,0c.972,0,1.473-.412,1.473-1.208s-.5-1.208-1.473-1.208H110.575c-3.77,0-5.6-1.149-5.6-3.446V11.327c0-.825-.56-1.237-1.62-1.237-1.031,0-1.561.412-1.561,1.237V24.846c0,3.858,2.886,5.773,8.63,5.773ZM15.859,55.963c0,.88.565,1.319,1.728,1.319,1.1,0,1.665-.44,1.665-1.319v-18H27.8q1.6,0,1.6-1.319c0-.817-.534-1.257-1.6-1.257H7.283c-1.037,0-1.571.44-1.571,1.288,0,.88.534,1.288,1.571,1.288h8.577Zm40.809,1.005a2.2,2.2,0,0,0,1.194.314c1.1,0,1.728-.534,1.728-1.351a1.269,1.269,0,0,0-.942-1.225L44.071,48.3h7.508c6.5,0,9.77-1.759,9.77-5.246V40.726c0-3.581-3.267-5.341-9.77-5.341H36.814c-.942,0-1.445.377-1.445,1.1V55.963c0,.88.565,1.319,1.665,1.319,1.131,0,1.728-.44,1.728-1.319V48.612ZM38.761,38.182c0-.157.094-.22.251-.22H51.7c4.178,0,6.252.942,6.252,2.827v2.262c0,1.916-2.073,2.859-6.283,2.859H38.761ZM68.2,55.963c0,.88.565,1.319,1.665,1.319,1.131,0,1.728-.44,1.728-1.319V36.548c0-.88-.565-1.319-1.634-1.319-1.162,0-1.759.44-1.759,1.319Zm31.824,1.162c1.005,0,1.571-.44,1.571-1.288s-.565-1.288-1.571-1.288H88.3c-4.021,0-5.969-1.194-5.969-3.55V41.386c0-2.293,1.916-3.424,5.718-3.424h11.969c1.005,0,1.571-.44,1.571-1.288s-.565-1.288-1.571-1.288H87.99q-9.048,0-9.048,5.938v9.77c0,4.021,3.079,6.032,9.2,6.032Zm28.117-.251a2.257,2.257,0,0,0,1.319.408c1.131,0,1.759-.5,1.759-1.319,0-.565-.22-.911-1.005-1.319l-16.43-8.577L129.9,37.742a1.36,1.36,0,0,0,.848-1.225c0-.817-.6-1.288-1.6-1.288a2.73,2.73,0,0,0-1.319.377L111.74,44.245V36.517c0-.848-.6-1.288-1.7-1.288s-1.7.44-1.7,1.288V55.963c0,.88.6,1.319,1.7,1.319s1.7-.44,1.7-1.319V48.046Z" transform="translate(6.23 -4.09)" fill="#66d6e9"/></g><g transform="matrix(1, 0, 0, 1, -9, -6)" filter="url(#e)"><path d="M33.322,30.618c.942,0,1.473-.412,1.473-1.208s-.53-1.208-1.473-1.208H22.336c-3.77,0-5.6-1.119-5.6-3.328V15.863c0-2.15,1.8-3.21,5.36-3.21H33.322c.942,0,1.473-.412,1.473-1.208s-.53-1.208-1.473-1.208H22.041q-8.482,0-8.482,5.566v9.16c0,3.77,2.886,5.655,8.63,5.655ZM61.39,24.875c0,2.209-1.8,3.328-5.419,3.328H49.638c-3.623,0-5.419-1.119-5.419-3.328V15.922c0-2.179,1.8-3.269,5.36-3.269h6.45c3.564,0,5.36,1.09,5.36,3.269Zm-5.449,5.743c5.743,0,8.63-1.885,8.63-5.655v-9.1c0-3.74-2.827-5.625-8.482-5.625H49.52c-5.655,0-8.482,1.885-8.482,5.625v9.1c0,3.77,2.886,5.655,8.63,5.655Zm35.785-5.743c0,2.209-1.8,3.328-5.419,3.328H79.974c-3.623,0-5.419-1.119-5.419-3.328V15.922c0-2.179,1.8-3.269,5.36-3.269h6.45c3.564,0,5.36,1.09,5.36,3.269Zm-5.449,5.743c5.743,0,8.63-1.885,8.63-5.655v-9.1c0-3.74-2.827-5.625-8.482-5.625H79.856c-5.655,0-8.482,1.885-8.482,5.625v9.1c0,3.77,2.886,5.655,8.63,5.655Zm36.491,0c.972,0,1.473-.412,1.473-1.208s-.5-1.208-1.473-1.208H110.575c-3.77,0-5.6-1.149-5.6-3.446V11.327c0-.825-.56-1.237-1.62-1.237-1.031,0-1.561.412-1.561,1.237V24.846c0,3.858,2.886,5.773,8.63,5.773ZM15.859,55.963c0,.88.565,1.319,1.728,1.319,1.1,0,1.665-.44,1.665-1.319v-18H27.8q1.6,0,1.6-1.319c0-.817-.534-1.257-1.6-1.257H7.283c-1.037,0-1.571.44-1.571,1.288,0,.88.534,1.288,1.571,1.288h8.577Zm40.809,1.005a2.2,2.2,0,0,0,1.194.314c1.1,0,1.728-.534,1.728-1.351a1.269,1.269,0,0,0-.942-1.225L44.071,48.3h7.508c6.5,0,9.77-1.759,9.77-5.246V40.726c0-3.581-3.267-5.341-9.77-5.341H36.814c-.942,0-1.445.377-1.445,1.1V55.963c0,.88.565,1.319,1.665,1.319,1.131,0,1.728-.44,1.728-1.319V48.612ZM38.761,38.182c0-.157.094-.22.251-.22H51.7c4.178,0,6.252.942,6.252,2.827v2.262c0,1.916-2.073,2.859-6.283,2.859H38.761ZM68.2,55.963c0,.88.565,1.319,1.665,1.319,1.131,0,1.728-.44,1.728-1.319V36.548c0-.88-.565-1.319-1.634-1.319-1.162,0-1.759.44-1.759,1.319Zm31.824,1.162c1.005,0,1.571-.44,1.571-1.288s-.565-1.288-1.571-1.288H88.3c-4.021,0-5.969-1.194-5.969-3.55V41.386c0-2.293,1.916-3.424,5.718-3.424h11.969c1.005,0,1.571-.44,1.571-1.288s-.565-1.288-1.571-1.288H87.99q-9.048,0-9.048,5.938v9.77c0,4.021,3.079,6.032,9.2,6.032Zm28.117-.251a2.257,2.257,0,0,0,1.319.408c1.131,0,1.759-.5,1.759-1.319,0-.565-.22-.911-1.005-1.319l-16.43-8.577L129.9,37.742a1.36,1.36,0,0,0,.848-1.225c0-.817-.6-1.288-1.6-1.288a2.73,2.73,0,0,0-1.319.377L111.74,44.245V36.517c0-.848-.6-1.288-1.7-1.288s-1.7.44-1.7,1.288V55.963c0,.88.6,1.319,1.7,1.319s1.7-.44,1.7-1.319V48.046Z" transform="translate(5.25 -3.11)" fill="#fff"/></g></g></g></svg>