<svg xmlns="http://www.w3.org/2000/svg" width="24" height="24" viewBox="0 0 24 24"><g transform="translate(-727 -1798)"><path d="M17.93,6.438A9.016,9.016,0,0,0,20,4.289a8.811,8.811,0,0,1-2.344.664,4.07,4.07,0,0,0,1.8-2.266,8.345,8.345,0,0,1-2.617.977,4.639,4.639,0,0,0-1.348-.937,3.913,3.913,0,0,0-1.66-.352,3.962,3.962,0,0,0-2.031.547,4.014,4.014,0,0,0-1.484,1.5,4.067,4.067,0,0,0-.547,2.051,5.693,5.693,0,0,0,.078.937,11.354,11.354,0,0,1-4.707-1.25,11.31,11.31,0,0,1-3.73-3.047,3.978,3.978,0,0,0-.078,4.023A4.55,4.55,0,0,0,2.656,8.625,3.861,3.861,0,0,1,.82,8.078v.078a3.932,3.932,0,0,0,.937,2.578A4.133,4.133,0,0,0,4.1,12.18a5.207,5.207,0,0,1-1.094.117q-.352,0-.742-.039A4.079,4.079,0,0,0,3.691,14.27a3.816,3.816,0,0,0,2.4.8A8.132,8.132,0,0,1,.977,16.828q-.547,0-.977-.039a11.38,11.38,0,0,0,6.289,1.836,11.27,11.27,0,0,0,6.367-1.836A11.156,11.156,0,0,0,16.6,12.375a11.583,11.583,0,0,0,1.367-5.43A2.327,2.327,0,0,0,17.93,6.438Z" transform="translate(729 1799.625)"/><rect width="24" height="24" transform="translate(727 1798)" fill="none"/></g></svg>